REM DIRINDEX 1\2,1\3,1\4,1\6,1\5\7,1\5\8
REM DIRNAME folder01,folder02,folder03,folder04,folder05,folder06,folder07,folder08
TITLE ""
FILE "DB4500_5th_4B_25.mp3" MP3
  TRACK 01 AUDIO
    TITLE "0:"
    INDEX 01 00:00:00
  TRACK 02 AUDIO
    TITLE "2:cjc114_2503"
    INDEX 01 00:00:01
  TRACK 03 AUDIO
    TITLE "0:"
    INDEX 01 00:01:03
  TRACK 04 AUDIO
    TITLE "3:cjc114_2504"
    INDEX 01 00:01:30
  TRACK 05 AUDIO
    TITLE "0:"
    INDEX 01 00:02:67
  TRACK 06 AUDIO
    TITLE "4:cjc114_2505"
    INDEX 01 00:03:19
  TRACK 07 AUDIO
    TITLE "0:"
    INDEX 01 00:05:73
  TRACK 08 AUDIO
    TITLE "2:cjc114_2506"
    INDEX 01 00:06:51
  TRACK 09 AUDIO
    TITLE "0:"
    INDEX 01 00:07:51
  TRACK 10 AUDIO
    TITLE "3:cjc114_2507"
    INDEX 01 00:08:03
  TRACK 11 AUDIO
    TITLE "0:"
    INDEX 01 00:09:10
  TRACK 12 AUDIO
    TITLE "4:cjc114_2508"
    INDEX 01 00:09:42
  TRACK 13 AUDIO
    TITLE "0:"
    INDEX 01 00:11:72
  TRACK 14 AUDIO
    TITLE "2:cjc114_2509"
    INDEX 01 00:12:50
  TRACK 15 AUDIO
    TITLE "0:"
    INDEX 01 00:13:71
  TRACK 16 AUDIO
    TITLE "3:cjc114_2510"
    INDEX 01 00:14:25
  TRACK 17 AUDIO
    TITLE "0:"
    INDEX 01 00:15:32
  TRACK 18 AUDIO
    TITLE "4:cjc114_2511"
    INDEX 01 00:15:60
  TRACK 19 AUDIO
    TITLE "0:"
    INDEX 01 00:19:07
  TRACK 20 AUDIO
    TITLE "2:cjc114_2512"
    INDEX 01 00:19:62
  TRACK 21 AUDIO
    TITLE "0:"
    INDEX 01 00:20:65
  TRACK 22 AUDIO
    TITLE "3:cjc114_2513"
    INDEX 01 00:21:21
  TRACK 23 AUDIO
    TITLE "0:"
    INDEX 01 00:22:29
  TRACK 24 AUDIO
    TITLE "4:cjc114_2514"
    INDEX 01 00:22:56
  TRACK 25 AUDIO
    TITLE "0:"
    INDEX 01 00:26:66
  TRACK 26 AUDIO
    TITLE "2:cjc114_2515"
    INDEX 01 00:27:43
  TRACK 27 AUDIO
    TITLE "0:"
    INDEX 01 00:28:60
  TRACK 28 AUDIO
    TITLE "3:cjc114_2516"
    INDEX 01 00:29:13
  TRACK 29 AUDIO
    TITLE "0:"
    INDEX 01 00:30:42
  TRACK 30 AUDIO
    TITLE "4:cjc114_2517"
    INDEX 01 00:30:67
  TRACK 31 AUDIO
    TITLE "0:"
    INDEX 01 00:33:56
  TRACK 32 AUDIO
    TITLE "2:cjc114_2518"
    INDEX 01 00:34:34
  TRACK 33 AUDIO
    TITLE "0:"
    INDEX 01 00:35:45
  TRACK 34 AUDIO
    TITLE "3:cjc114_2519"
    INDEX 01 00:36:01
  TRACK 35 AUDIO
    TITLE "0:"
    INDEX 01 00:37:30
  TRACK 36 AUDIO
    TITLE "4:cjc114_2520"
    INDEX 01 00:37:57
  TRACK 37 AUDIO
    TITLE "0:"
    INDEX 01 00:42:06
  TRACK 38 AUDIO
    TITLE "2:cjc114_2521"
    INDEX 01 00:42:59
  TRACK 39 AUDIO
    TITLE "0:"
    INDEX 01 00:43:62
  TRACK 40 AUDIO
    TITLE "3:cjc114_2522"
    INDEX 01 00:44:18
  TRACK 41 AUDIO
    TITLE "0:"
    INDEX 01 00:45:35
  TRACK 42 AUDIO
    TITLE "4:cjc114_2523"
    INDEX 01 00:45:67
  TRACK 43 AUDIO
    TITLE "0:"
    INDEX 01 00:48:73
  TRACK 44 AUDIO
    TITLE "2:cjc114_2524"
    INDEX 01 00:49:51
  TRACK 45 AUDIO
    TITLE "0:"
    INDEX 01 00:50:58
  TRACK 46 AUDIO
    TITLE "3:cjc114_2525"
    INDEX 01 00:51:11
  TRACK 47 AUDIO
    TITLE "0:"
    INDEX 01 00:52:10
  TRACK 48 AUDIO
    TITLE "4:cjc114_2526"
    INDEX 01 00:52:37
  TRACK 49 AUDIO
    TITLE "0:"
    INDEX 01 00:55:44
  TRACK 50 AUDIO
    TITLE "2:cjc114_2527"
    INDEX 01 00:56:24
  TRACK 51 AUDIO
    TITLE "0:"
    INDEX 01 00:57:25
  TRACK 52 AUDIO
    TITLE "3:cjc114_2528"
    INDEX 01 00:57:52
  TRACK 53 AUDIO
    TITLE "0:"
    INDEX 01 00:59:00
  TRACK 54 AUDIO
    TITLE "4:cjc114_2529"
    INDEX 01 00:59:28
  TRACK 55 AUDIO
    TITLE "0:"
    INDEX 01 01:02:20
  TRACK 56 AUDIO
    TITLE "2:cjc114_2530"
    INDEX 01 01:03:00
  TRACK 57 AUDIO
    TITLE "0:"
    INDEX 01 01:04:17
  TRACK 58 AUDIO
    TITLE "3:cjc114_2531"
    INDEX 01 01:04:47
  TRACK 59 AUDIO
    TITLE "0:"
    INDEX 01 01:05:52
  TRACK 60 AUDIO
    TITLE "4:cjc114_2532"
    INDEX 01 01:06:02
  TRACK 61 AUDIO
    TITLE "0:"
    INDEX 01 01:09:54
  TRACK 62 AUDIO
    TITLE "2:cjc114_2533"
    INDEX 01 01:10:30
  TRACK 63 AUDIO
    TITLE "0:"
    INDEX 01 01:11:39
  TRACK 64 AUDIO
    TITLE "3:cjc114_2534"
    INDEX 01 01:11:68
  TRACK 65 AUDIO
    TITLE "0:"
    INDEX 01 01:13:14
  TRACK 66 AUDIO
    TITLE "4:cjc114_2535"
    INDEX 01 01:13:44
  TRACK 67 AUDIO
    TITLE "0:"
    INDEX 01 01:17:49
  TRACK 68 AUDIO
    TITLE "2:cjc114_2536"
    INDEX 01 01:18:29
  TRACK 69 AUDIO
    TITLE "0:"
    INDEX 01 01:19:23
  TRACK 70 AUDIO
    TITLE "3:cjc114_2537"
    INDEX 01 01:19:52
  TRACK 71 AUDIO
    TITLE "0:"
    INDEX 01 01:20:69
  TRACK 72 AUDIO
    TITLE "4:cjc114_2538"
    INDEX 01 01:21:23
  TRACK 73 AUDIO
    TITLE "0:"
    INDEX 01 01:24:41
